# xmcd CD database file
#
# Track frame offsets:
#	150
#	17598
#	33609
#	48870
#	67918
#	79240
#	100561
#	117663
#	134228
#	151313
#	169119
#
# Disc length: 2344 seconds
#
# Revision: 0
# Processed by: cddbd v1.5.2PL0 Copyright (c) Steve Scherf et al.
# Submitted via: CDex 1.51
#
DISCID=8d09260b
DTITLE=Kingdom Mass Choir - Christmas Spirit
DYEAR=2000
DGENRE=Jazz
TTITLE0=Silent Night
TTITLE1=O'  Come All Ye Faithful
TTITLE2=Away In A Manger
TTITLE3=Joy To The World
TTITLE4=Go Tell It On The Mountain
TTITLE5=Hark! The Herald Angels Sing
TTITLE6=It Came Upon A Midnight Clear
TTITLE7=Angels We Have Heard On High
TTITLE8=What Child Is This?
TTITLE9=O' Holy Night
TTITLE10=O' Holy Night - Finali
EXTD=YEAR: 2000
EXTT0=
EXTT1=
EXTT2=
EXTT3=
EXTT4=
EXTT5=
EXTT6=
EXTT7=
EXTT8=
EXTT9=
EXTT10=
PLAYORDER=
